<?xml version="1.0" encoding="UTF-8" standalone="no"?><svg xmlns="http://www.w3.org/2000/svg" xmlns:xlink="http://www.w3.org/1999/xlink" fill="#e635d1" height="556.9" preserveAspectRatio="xMidYMid meet" version="1" viewBox="24.9 21.6 571.3 556.9" width="571.3" zoomAndPan="magnify"><g><g><g><g id="change1_1"><path d="M160.552,578.438c-5.258,0-10.461-1.363-15.045-3.941c-10.136-5.7-16.12-16.46-15.616-28.08l2.34-53.925 c-42.281-33.989-72.568-79.498-87.73-131.925c-19.631-67.876-11.508-139.462,22.873-201.57 c34.382-62.109,90.837-107.166,158.967-126.871l0.12-0.035c24.165-6.989,49.061-10.532,74.004-10.532 c56.407,0,112.593,18.534,158.208,52.188c47.136,34.775,80.636,82.843,96.88,139.006 c40.597,140.361-40.978,287.698-181.841,328.439c-24.259,7.017-49.206,10.574-74.147,10.574c-0.001,0-0.001,0-0.003,0 c-25.014-0.001-49.877-3.56-73.98-10.583l-47.969,32.075C172.547,576.647,166.647,578.438,160.552,578.438z M300.466,41.561 c-23.063,0-46.089,3.278-68.44,9.742l-0.12,0.035c-63.018,18.226-115.232,59.9-147.033,117.347 C53.084,226.106,45.57,292.279,63.714,355.011c14.46,50,43.799,93.185,84.843,124.884c2.573,1.986,4.019,5.1,3.878,8.348 l-2.563,59.042c-0.176,4.048,1.908,7.796,5.438,9.781c1.597,0.898,3.41,1.373,5.241,1.373c2.124,0,4.179-0.624,5.944-1.804 l51.892-34.698c2.511-1.678,5.646-2.133,8.528-1.236c23.61,7.343,48.052,11.066,72.646,11.067 c23.062,0,46.141-3.293,68.594-9.787c130.27-37.677,205.717-173.902,168.185-303.67 C506.242,114.243,409.246,41.561,300.466,41.561z M384.132,439.509c-18.254,0-42.556-6.671-78.798-21.631 c-46.66-19.241-92.929-59.504-130.28-113.368c-0.628-0.906-1.064-1.545-1.312-1.873c-0.024-0.033-0.088-0.117-0.112-0.15 l-0.316-0.43c-11.959-16.225-32.021-48.499-32.021-82.346c0-39.65,19.908-59.783,28.409-68.381l0.644-0.652 c8.703-8.854,18.402-13.347,28.821-13.347c23.428,0,42.231,22.997,52.016,44.519c9.306,20.467,15.057,50.233,0.637,66.763 c-1.714,1.969-3.36,3.708-4.951,5.39c-2.059,2.175-4.003,4.23-5.951,6.632c-0.053,0.065-0.106,0.129-0.161,0.193l-0.199,0.232 c-0.792,0.927-1.955,2.287-2.304,2.984c0.061,0.194,0.205,0.565,0.534,1.13c5.205,8.765,19.569,31.24,39.518,48.918 c24.967,22.12,45.134,30.229,54.825,34.125c0.902,0.363,1.708,0.687,2.411,0.979c1.135,0.469,2.354,0.721,3.51,0.721 c0.863,0,2.457-0.154,3.428-1.184c4.495-4.826,10.246-12.877,16.334-21.4l2.815-3.936c6.467-9.097,14.445-11.014,19.996-11.014 c3.186,0,6.51,0.634,9.883,1.885c43.563,15.084,64.184,27.288,71.168,42.115c5.722,12.146,1.562,23.29-2.461,34.068 c-0.574,1.538-1.163,3.115-1.74,4.739c-7.505,21.104-35.254,37.595-57.554,42.397 C396.508,438.521,391.244,439.509,384.132,439.509z M189.703,290.584c0.411,0.545,0.938,1.306,1.787,2.529 c35.184,50.741,78.324,88.484,121.473,106.277c33.254,13.727,55.868,20.119,71.17,20.119c5.183,0,9.072-0.731,12.612-1.479 c16.916-3.645,38.207-16.387,42.884-29.536c0.611-1.723,1.237-3.4,1.848-5.036c3.44-9.218,5.141-14.229,3.105-18.552 c-4.148-8.806-24.244-19.497-59.729-31.777c-0.081-0.028-0.161-0.058-0.242-0.087c-1.146-0.431-2.18-0.658-2.986-0.658 c-0.599,0-1.846,0-3.72,2.636l-2.817,3.938c-6.476,9.066-12.593,17.63-18.018,23.454c-4.582,4.856-10.965,7.505-18.019,7.505 c-3.752,0-7.611-0.775-11.161-2.242c-0.659-0.273-1.396-0.569-2.221-0.9c-9.896-3.979-33.069-13.296-60.628-37.713 c-21.266-18.846-36.38-41.768-43.497-53.754c-7.886-13.558,0.31-23.147,3.81-27.242l0.112-0.13 c2.399-2.948,4.674-5.353,6.875-7.678c1.519-1.605,2.953-3.121,4.401-4.784c6.318-7.242,4.696-26.733-3.766-45.344 c-8.919-19.617-22.506-32.797-33.81-32.797c-4.855,0-9.755,2.481-14.564,7.374l-0.679,0.687 c-7.346,7.429-22.63,22.887-22.63,54.319c0,20.544,10.25,46.233,28.121,70.48L189.703,290.584z"/></g></g><g id="change1_2"><path d="M160.551,578.439c-5.257,0-10.459-1.362-15.044-3.94c-9.651-5.429-15.646-15.677-15.646-26.747 c0-0.445,0.009-0.892,0.029-1.338l4.883-112.522c0.24-5.518,4.885-9.813,10.424-9.557c5.518,0.239,9.796,4.906,9.557,10.424 l-4.884,112.526c-0.007,0.159-0.01,0.313-0.01,0.467c0,3.854,2.088,7.424,5.449,9.314c1.597,0.898,3.41,1.373,5.24,1.373 c2.124,0,4.179-0.624,5.944-1.804l97.691-65.322c4.593-3.07,10.802-1.837,13.872,2.754s1.836,10.802-2.754,13.871l-97.692,65.322 C172.545,576.648,166.646,578.439,160.551,578.439z"/></g></g></g></svg>