<?xml version="1.0" encoding="UTF-8" standalone="no"?><svg xmlns="http://www.w3.org/2000/svg" xmlns:xlink="http://www.w3.org/1999/xlink" fill="none" height="25" preserveAspectRatio="xMidYMid meet" style="fill: none" version="1" viewBox="0.0 0.5 24.0 24.0" width="24" zoomAndPan="magnify"><g id="change1_1"><path clip-rule="evenodd" d="M12 0.5C5.3726 0.5 0 5.8726 0 12.5C0 19.1274 5.3726 24.5 12 24.5C18.6274 24.5 24 19.1274 24 12.5C24 5.8726 18.6274 0.5 12 0.5ZM2 12.5C2 6.97715 6.47715 2.5 12 2.5C17.5229 2.5 22 6.97715 22 12.5C22 17.0004 19.0271 20.8064 14.9381 22.0614C15.0498 20.0403 15.0115 18.7883 14.8231 18.3056C14.6243 17.7961 14.4623 17.5872 14.3651 17.462C14.3014 17.3799 14.2656 17.3338 14.2656 17.2625C14.2656 17.1425 14.3501 17.0555 14.5191 17.0016C15.9925 16.6759 16.9805 15.7704 17.4832 14.2851C18.1796 12.2271 17.1855 10.7306 16.7833 10.1251C16.7501 10.0751 16.7209 10.0312 16.697 9.9935C16.3843 9.4998 16.794 8.2982 17.2833 7.3366C15.6194 7.00304 14.984 7.7761 14.6195 8.21944C14.4707 8.40051 14.367 8.52658 14.257 8.4998C14.1587 8.47588 14.0529 8.42937 13.926 8.37356C13.5628 8.21394 13.0269 7.97835 12 7.97835C10.7266 7.97835 9.88285 8.42316 9.75385 8.49117C9.74247 8.49717 9.7366 8.4998 9.7366 8.4998C9.0672 7.5669 8.11665 7.1792 6.88485 7.3366C7.2241 8.69235 7.2496 9.57795 6.96135 9.9935C6.52895 10.6168 5.7184 12.0668 6.3476 14.2851C6.97685 16.5034 9.26765 17.0016 9.7037 17.0016L9.70657 17.0022C9.74122 17.0097 10.0621 17.079 9.96575 17.3501C9.94683 17.4222 9.93426 17.5204 9.9201 17.631C9.87465 17.9861 9.81285 18.4688 9.4723 18.6257C9.0256 18.8315 8.0402 18.9439 7.628 18.687C7.49067 18.6014 7.39203 18.4224 7.27322 18.2068C7.0354 17.7752 6.7168 17.197 5.8455 16.928C4.53892 16.5246 4.62079 17.058 4.9469 17.1889C5.01871 17.2177 5.11388 17.2447 5.22252 17.2755C5.60719 17.3844 6.16073 17.5412 6.44445 17.9977C6.5276 18.1315 6.61316 18.2781 6.70059 18.4278C6.99571 18.9334 7.312 19.4753 7.628 19.6831C7.9011 19.8627 8.5556 19.9346 9.5915 19.8988C9.54646 20.8767 9.5224 21.6404 9.51931 22.1899C5.19645 21.0865 2 17.1666 2 12.5Z" fill="#e635d1" fill-opacity="0.85" fill-rule="evenodd"/></g></svg>