<?xml version="1.0" encoding="UTF-8" standalone="no"?><svg xmlns="http://www.w3.org/2000/svg" xmlns:xlink="http://www.w3.org/1999/xlink" fill="#000000" height="499.8" preserveAspectRatio="xMidYMid meet" version="1" viewBox="0.0 0.0 445.9 499.8" width="445.9" zoomAndPan="magnify"><defs><clipPath id="a"><path d="M 0 0 L 445.898438 0 L 445.898438 499.800781 L 0 499.800781 Z M 0 0"/></clipPath></defs><g><g clip-path="url(#a)" id="change1_1"><path d="M 330.5 315.699219 C 281 315.699219 240.101562 278.199219 234.601562 230.101562 C 236.300781 229.898438 238.101562 229.699219 239.800781 229.5 L 426.601562 228.601562 C 421.898438 277.398438 380.601562 315.699219 330.5 315.699219 Z M 115.300781 317.800781 C 65.199219 317.800781 23.898438 279.5 19.199219 230.601562 L 210.300781 229.699219 C 210.699219 229.699219 211 229.800781 211.398438 229.898438 C 207.101562 279 165.699219 317.800781 115.300781 317.800781 Z M 109.800781 125 C 112.800781 160.898438 132.199219 192.101562 160.601562 211.199219 L 19.300781 211.898438 C 23.800781 164.800781 62.300781 127.699219 109.800781 125 Z M 211.300781 210.800781 C 167.800781 204.699219 133.398438 169.601562 128.699219 125.699219 C 172.199219 131.800781 206.5 166.898438 211.300781 210.800781 Z M 215.101562 19.199219 L 213.699219 161.398438 C 195.601562 131.699219 164.601562 110.800781 128.5 106.699219 C 132.601562 60.601562 169.101562 23.699219 215.101562 19.199219 Z M 320.5 104.398438 C 283.300781 107.601562 251.199219 128.601562 232.5 158.800781 L 233.898438 19.300781 C 279.199219 23.601562 315.398438 59.300781 320.5 104.398438 Z M 234.398438 210.800781 C 238.398438 164.699219 274.800781 127.800781 320.800781 123.101562 C 317.199219 168.101562 282.699219 204.300781 238.601562 210.699219 Z M 426.601562 209.800781 L 289.601562 210.5 C 318 191.101562 337.101562 159.300781 339.5 123.101562 C 385.5 127.300781 422.199219 163.898438 426.601562 209.800781 Z M 445.898438 219.101562 C 445.800781 158.5 398.800781 108.800781 339.398438 104.300781 C 333.800781 45.898438 284.601562 0.101562 224.800781 0 L 224.601562 0 C 164.101562 0 114.398438 46.898438 109.800781 106.199219 C 48.800781 109.101562 0 159.5 0 221.199219 C 0 284.699219 51.800781 336.398438 115.300781 336.398438 C 156.199219 336.398438 192.199219 314.898438 212.601562 282.601562 L 211.800781 481 L 115.199219 481 C 110 481 105.800781 485.199219 105.800781 490.398438 C 105.800781 495.601562 110 499.800781 115.199219 499.800781 L 330.398438 499.800781 C 335.601562 499.800781 339.800781 495.601562 339.800781 490.398438 C 339.800781 485.199219 335.601562 481 330.398438 481 L 230.5 481 L 231.300781 277.601562 C 251.398438 311.5 288.300781 334.300781 330.398438 334.300781 C 394.101562 334.5 445.898438 282.699219 445.898438 219.101562" fill="#e635d1"/></g></g></svg>