<?xml version="1.0" encoding="UTF-8" standalone="no"?><svg xmlns="http://www.w3.org/2000/svg" xmlns:xlink="http://www.w3.org/1999/xlink" fill="#000000" height="500" preserveAspectRatio="xMidYMid meet" version="1" viewBox="0.0 0.0 474.9 500.0" width="474.9" zoomAndPan="magnify"><defs><clipPath id="a"><path d="M 0 0 L 474.898438 0 L 474.898438 500 L 0 500 Z M 0 0"/></clipPath></defs><g><g clip-path="url(#a)" id="change1_1"><path d="M 246.898438 473.5 L 246.898438 453.601562 L 455.800781 342.699219 L 455.800781 362.601562 Z M 19 150.300781 L 39.5 160.898438 L 39.5 376.101562 L 19 365.5 Z M 237.5 21.601562 L 445.101562 131.800781 L 423 143.5 L 215.699219 33.5 Z M 455.898438 270 L 246.898438 380.898438 L 246.898438 351.199219 L 455.800781 240.300781 L 455.800781 270 Z M 199 243.5 L 228 258.5 L 228 473.699219 L 199 458.699219 Z M 151.5 218.898438 L 180 233.601562 L 180 448.800781 L 151.5 434.101562 Z M 104 194.300781 L 132.5 209 L 132.5 424.199219 L 104 409.5 Z M 85 184.398438 L 85 399.601562 L 58.5 386 L 58.5 170.699219 Z M 258.101562 231 L 237.398438 242 L 29.800781 134.5 L 52.699219 122 Z M 305.199219 205.898438 L 278.300781 220.199219 L 72.699219 111.101562 L 99.300781 96.699219 Z M 355.398438 179.300781 L 325.5 195.199219 L 119.300781 85.800781 L 148.800781 69.699219 Z M 375.699219 168.601562 L 168.898438 58.800781 L 195.601562 44.300781 L 402.699219 154.199219 Z M 455.898438 168.101562 L 246.898438 278.898438 L 246.898438 258.300781 L 455.800781 147.398438 L 455.800781 168.101562 Z M 246.898438 300.398438 L 455.800781 189.5 L 455.800781 218.699219 L 246.898438 329.601562 Z M 455.898438 321.199219 L 246.898438 432.101562 L 246.898438 402.398438 L 455.800781 291.5 L 455.800781 321.199219 Z M 237.398438 0 L 0 129 L 0 377 L 237.5 500 L 474.898438 374 L 474.898438 126 L 237.398438 0" fill="#e635d1"/></g></g></svg>