<?xml version="1.0" encoding="UTF-8" standalone="no"?><svg xmlns="http://www.w3.org/2000/svg" xmlns:xlink="http://www.w3.org/1999/xlink" fill="#000000" height="500" preserveAspectRatio="xMidYMid meet" version="1" viewBox="0.0 0.0 336.7 500.0" width="336.7" zoomAndPan="magnify"><defs><clipPath id="a"><path d="M 0 0 L 336.699219 0 L 336.699219 500 L 0 500 Z M 0 0"/></clipPath></defs><g><g clip-path="url(#a)" id="change1_1"><path d="M 67.101562 479.800781 L 269.398438 479.800781 L 269.398438 500 L 67.101562 500 Z M 229.5 70.101562 L 197.101562 111.101562 C 190.101562 96.800781 175.5 86.898438 158.5 86.898438 C 138.300781 86.898438 121.398438 100.898438 116.800781 119.699219 L 80.101562 119.699219 L 41.300781 70.101562 Z M 295.101562 70.101562 L 256 119.699219 L 216 119.699219 L 255.199219 70.101562 Z M 138.300781 119.699219 C 142 112.199219 149.699219 107 158.601562 107 C 167.5 107 175.199219 112.199219 178.898438 119.699219 Z M 178.898438 139.898438 C 175.199219 147.398438 167.5 152.601562 158.601562 152.601562 C 149.699219 152.601562 142 147.398438 138.300781 139.898438 Z M 116.898438 139.898438 C 121.5 158.699219 138.398438 172.699219 158.601562 172.699219 C 178.800781 172.699219 195.699219 158.699219 200.300781 139.898438 L 240.101562 139.898438 L 167.601562 231.800781 L 95.800781 139.898438 Z M 207.101562 441.898438 C 192.898438 433.601562 183.800781 422.5 178.300781 414 L 177.601562 251.601562 L 336.699219 49.898438 L 271.101562 49.898438 L 300.601562 12.5 L 284.800781 0 L 245.398438 49.898438 L 0 49.898438 L 157.5 251.601562 L 158.199219 413.5 C 151.398438 422.199219 140.5 433.398438 124.398438 441.601562 C 102.601562 452.699219 81.800781 453.300781 68.199219 451.800781 L 66.101562 471.800781 C 82.398438 473.5 107.398438 472.800781 133.601562 459.5 C 146.398438 453 157.898438 444.199219 167.699219 433.601562 C 175.800781 443.898438 185.800781 452.699219 197 459.300781 C 216.199219 470.601562 235.5 473.699219 250.699219 473.699219 C 259 473.699219 266.101562 472.800781 271.398438 471.800781 L 267.699219 452 C 257.699219 453.800781 232 456.5 207.101562 441.898438" fill="#e635d1"/></g></g></svg>